<svg width="119" height="104" viewBox="0 0 119 104" fill="none" xmlns="http://www.w3.org/2000/svg">
<g filter="url(#filter0_d_200_175)">
<path d="M118.749 45.3467V48.5806H41.1086V36.1585C41.1086 33.86 42.9723 32 45.2671 32H69.9959C72.2907 32 74.1544 33.86 74.1544 36.1585C74.1544 36.9894 74.8276 37.6626 75.6585 37.6626H111.071C115.313 37.6626 118.751 41.1002 118.751 45.3467H118.749Z" fill="#3D3DF2"/>
<path d="M115.551 44.4514H44.0909C42.3838 44.4514 41 45.8352 41 47.5423V96.3579C41 98.0649 42.3838 99.4487 44.0909 99.4487H115.551C117.258 99.4487 118.642 98.0649 118.642 96.3579V47.5423C118.642 45.8352 117.258 44.4514 115.551 44.4514Z" fill="#0202FC"/>
</g>
<defs>
<filter id="filter0_d_200_175" x="0.434282" y="0.404587" width="118.317" height="102.732" filterUnits="userSpaceOnUse" color-interpolation-filters="sRGB">
<feFlood flood-opacity="0" result="BackgroundImageFix"/>
<feColorMatrix in="SourceAlpha" type="matrix" values="0 0 0 0 0 0 0 0 0 0 0 0 0 0 0 0 0 0 127 0" result="hardAlpha"/>
<feOffset dx="-22.9241" dy="-13.9538"/>
<feGaussianBlur stdDeviation="8.8208"/>
<feComposite in2="hardAlpha" operator="out"/>
<feColorMatrix type="matrix" values="0 0 0 0 0 0 0 0 0 0 0 0 0 0 0 0 0 0 0.25 0"/>
<feBlend mode="normal" in2="BackgroundImageFix" result="effect1_dropShadow_200_175"/>
<feBlend mode="normal" in="SourceGraphic" in2="effect1_dropShadow_200_175" result="shape"/>
</filter>
</defs>
</svg>
