<svg width="424" height="360" viewBox="0 0 424 360" fill="none" xmlns="http://www.w3.org/2000/svg">
<path d="M423.02 73.5448V91.1466H0.568726V23.5603C0.568726 11.0617 10.7052 0.935181 23.1938 0.935181H157.748C170.227 0.935181 180.374 11.0517 180.374 23.5603C180.374 28.0753 184.031 31.7432 188.556 31.7432H381.239C404.322 31.7432 423.03 50.4513 423.03 73.5548L423.02 73.5448Z" fill="#3D3DF2"/>
<path d="M406.236 60.0197H17.3631C8.08783 60.0197 0.568726 67.5388 0.568726 76.8141V342.465C0.568726 351.74 8.08783 359.259 17.3631 359.259H406.236C415.511 359.259 423.03 351.74 423.03 342.465V76.8141C423.03 67.5388 415.511 60.0197 406.236 60.0197Z" fill="#0202FC"/>
<path d="M29.7919 259.19H21.928V237.332H29.5826C36.0412 237.332 40.4965 241.787 40.4965 248.306C40.4965 254.734 36.1309 259.19 29.7919 259.19ZM29.2238 240.86H25.7553V255.661H29.4331C33.7987 255.661 36.4599 252.851 36.4599 248.306C36.4599 243.671 33.7389 240.86 29.2238 240.86ZM50.1316 259.578C45.7362 259.578 42.6564 256.379 42.6564 251.804C42.6564 247.169 45.6764 243.97 50.012 243.97C54.4374 243.97 57.2481 246.93 57.2481 251.535V252.641L46.1249 252.671C46.394 255.273 47.7695 256.588 50.1914 256.588C52.1948 256.588 53.5104 255.811 53.9291 254.405H57.3079C56.68 257.635 53.9889 259.578 50.1316 259.578ZM50.0419 246.96C47.8891 246.96 46.5734 248.126 46.2146 250.339H53.6301C53.6301 248.306 52.2247 246.96 50.0419 246.96ZM63.8455 259.19H60.2274V236.943H63.8455V259.19ZM69.496 241.458C68.2402 241.458 67.2535 240.472 67.2535 239.246C67.2535 238.02 68.2402 237.063 69.496 237.063C70.6921 237.063 71.6788 238.02 71.6788 239.246C71.6788 240.472 70.6921 241.458 69.496 241.458ZM67.6721 259.19V244.418H71.32V259.19H67.6721ZM79.2751 259.19L73.4145 244.418H77.3016L79.8731 251.206C80.501 252.97 81.0093 254.495 81.1887 255.302C81.3981 254.376 81.9363 252.821 82.5642 251.206L85.2553 244.418H89.0228L82.8632 259.19H79.2751ZM96.998 259.578C92.6025 259.578 89.5227 256.379 89.5227 251.804C89.5227 247.169 92.5427 243.97 96.8784 243.97C101.304 243.97 104.114 246.93 104.114 251.535V252.641L92.9912 252.671C93.2604 255.273 94.6358 256.588 97.0578 256.588C99.0611 256.588 100.377 255.811 100.795 254.405H104.174C103.546 257.635 100.855 259.578 96.998 259.578ZM96.9083 246.96C94.7554 246.96 93.4398 248.126 93.0809 250.339H100.496C100.496 248.306 99.091 246.96 96.9083 246.96ZM116.303 244.359V247.737H114.958C112.326 247.737 110.682 249.143 110.682 252.013V259.19H107.034V244.448H110.473L110.682 246.601C111.31 245.136 112.715 244.149 114.689 244.149C115.197 244.149 115.705 244.209 116.303 244.359Z" fill="white"/>
<path d="M28.2173 280.885C24.9282 280.885 22.855 283.317 22.855 286.964C22.855 290.672 25.0478 292.925 28.2571 292.925C30.6492 292.925 32.9815 291.769 32.9815 288.34V287.602H27.8186V286.327H34.337V294.061H33.2008L33.0612 291.788C32.3037 293.204 30.5097 294.28 28.1973 294.28C24.1507 294.28 21.36 291.37 21.36 286.964C21.36 282.599 24.1507 279.529 28.2372 279.529C31.2472 279.529 33.5795 281.243 34.1377 283.835H32.5828C31.9848 281.881 30.3103 280.885 28.2173 280.885ZM40.9352 294.28C38.1045 294.28 36.2108 292.247 36.2108 289.217C36.2108 286.207 38.0846 284.134 40.8355 284.134C43.4469 284.134 45.221 285.988 45.221 288.719V289.396H37.5464C37.6461 291.749 38.882 293.104 40.9551 293.104C42.5299 293.104 43.5465 292.426 43.9053 291.151H45.221C44.7027 293.184 43.2076 294.28 40.9352 294.28ZM40.8355 285.31C39.0215 285.31 37.8255 286.506 37.5863 288.4H43.8455C43.8455 286.546 42.6495 285.31 40.8355 285.31ZM49.5355 294.041H48.1799V285.549H46.2463V284.393H48.1799V281.343H49.5355V284.393H51.4691V285.549H49.5355V294.041ZM57.812 298.247V297.111H58.8685C59.7057 297.111 60.5429 297.051 61.0213 295.755L61.44 294.619L57.5329 284.393H58.9881L62.0978 292.805L65.1477 284.393H66.563L62.1376 296.254C61.5795 297.769 60.6426 298.387 59.2671 298.387C58.6891 298.387 58.2505 298.347 57.812 298.247ZM67.163 289.217C67.163 286.267 69.2362 284.134 72.0668 284.134C74.8974 284.134 76.9706 286.267 76.9706 289.217C76.9706 292.147 74.8974 294.28 72.0668 294.28C69.2362 294.28 67.163 292.147 67.163 289.217ZM68.5584 289.197C68.5584 291.47 69.9937 293.044 72.0668 293.044C74.12 293.044 75.5752 291.47 75.5752 289.197C75.5752 286.964 74.12 285.37 72.0668 285.37C69.9937 285.37 68.5584 286.964 68.5584 289.197ZM85.7144 284.393H87.0899V294.041H85.8938L85.7144 292.406C85.1762 293.523 83.8406 294.28 82.3257 294.28C80.0532 294.28 78.8173 292.725 78.8173 290.373V284.373H80.2127V289.935C80.2127 292.227 81.2293 293.044 82.7642 293.044C84.6181 293.044 85.7144 291.808 85.7144 289.516V284.393ZM94.9984 284.273V285.509H94.2409C92.4668 285.509 91.3305 286.705 91.3305 288.539V294.041H89.9551V284.393H91.2508L91.3505 285.888C91.7292 284.851 92.7459 284.174 94.1014 284.174C94.4004 284.174 94.6595 284.194 94.9984 284.273ZM106.143 294.28C103.332 294.28 101.678 292.127 101.678 289.237C101.678 286.327 103.332 284.134 106.203 284.134C107.797 284.134 109.073 284.832 109.751 286.227V279.509H111.126V294.041H109.93L109.791 292.068C109.113 293.563 107.758 294.28 106.143 294.28ZM106.382 293.024C108.495 293.024 109.731 291.43 109.731 289.197C109.731 286.984 108.495 285.37 106.382 285.37C104.289 285.37 103.073 286.984 103.073 289.197C103.073 291.43 104.289 293.024 106.382 293.024ZM118.043 294.28C115.213 294.28 113.319 292.247 113.319 289.217C113.319 286.207 115.193 284.134 117.944 284.134C120.555 284.134 122.329 285.988 122.329 288.719V289.396H114.654C114.754 291.749 115.99 293.104 118.063 293.104C119.638 293.104 120.655 292.426 121.013 291.151H122.329C121.811 293.184 120.316 294.28 118.043 294.28ZM117.944 285.31C116.13 285.31 114.933 286.506 114.694 288.4H120.954C120.954 286.546 119.758 285.31 117.944 285.31ZM123.711 291.33H125.026C125.026 292.446 125.864 293.144 127.219 293.144C128.714 293.144 129.591 292.506 129.591 291.47C129.591 290.672 129.193 290.214 128.056 289.935L126.402 289.516C124.727 289.097 123.91 288.22 123.91 286.905C123.91 285.21 125.326 284.134 127.399 284.134C129.432 284.134 130.748 285.25 130.807 287.044H129.472C129.432 285.928 128.654 285.27 127.359 285.27C126.003 285.27 125.246 285.848 125.246 286.885C125.246 287.622 125.764 288.141 126.821 288.4L128.475 288.818C130.15 289.237 130.907 290.014 130.907 291.41C130.907 293.144 129.432 294.28 127.239 294.28C125.066 294.28 123.711 293.124 123.711 291.33ZM133.849 281.742C133.291 281.742 132.833 281.283 132.833 280.725C132.833 280.167 133.291 279.689 133.849 279.689C134.407 279.689 134.886 280.167 134.886 280.725C134.886 281.283 134.407 281.742 133.849 281.742ZM133.171 294.041V284.393H134.547V294.041H133.171ZM136.757 288.938C136.757 286.307 138.452 284.134 141.282 284.134C142.957 284.134 144.233 284.911 144.851 286.327L144.99 284.393H146.186V293.742C146.186 296.613 144.352 298.486 141.522 298.486C139.05 298.486 137.315 297.091 136.937 294.759H138.312C138.611 296.313 139.807 297.23 141.542 297.23C143.515 297.23 144.831 295.895 144.831 293.882V291.589C144.173 292.945 142.837 293.742 141.183 293.742C138.432 293.742 136.757 291.569 136.757 288.938ZM138.133 288.918C138.133 290.891 139.349 292.506 141.382 292.506C143.475 292.506 144.711 290.991 144.711 288.918C144.711 286.865 143.515 285.35 141.402 285.35C139.329 285.35 138.133 286.964 138.133 288.918ZM150.432 294.041H149.056V284.393H150.252L150.452 286.067C151.09 284.832 152.365 284.134 153.761 284.134C156.412 284.134 157.508 285.709 157.508 288.141V294.041H156.133V288.44C156.133 286.187 155.116 285.39 153.522 285.39C151.548 285.39 150.432 286.825 150.432 288.998V294.041ZM159.316 291.33H160.631C160.631 292.446 161.469 293.144 162.824 293.144C164.319 293.144 165.196 292.506 165.196 291.47C165.196 290.672 164.798 290.214 163.661 289.935L162.007 289.516C160.332 289.097 159.515 288.22 159.515 286.905C159.515 285.21 160.93 284.134 163.003 284.134C165.037 284.134 166.352 285.25 166.412 287.044H165.077C165.037 285.928 164.259 285.27 162.964 285.27C161.608 285.27 160.851 285.848 160.851 286.885C160.851 287.622 161.369 288.141 162.425 288.4L164.08 288.818C165.754 289.237 166.512 290.014 166.512 291.41C166.512 293.144 165.037 294.28 162.844 294.28C160.671 294.28 159.316 293.124 159.316 291.33ZM174.983 281.742C174.424 281.742 173.966 281.283 173.966 280.725C173.966 280.167 174.424 279.689 174.983 279.689C175.541 279.689 176.019 280.167 176.019 280.725C176.019 281.283 175.541 281.742 174.983 281.742ZM174.305 294.041V284.393H175.68V294.041H174.305ZM179.924 294.041H178.549V284.393H179.745L179.944 286.067C180.582 284.832 181.858 284.134 183.253 284.134C185.904 284.134 187.001 285.709 187.001 288.141V294.041H185.625V288.44C185.625 286.187 184.608 285.39 183.014 285.39C181.04 285.39 179.924 286.825 179.924 288.998V294.041ZM195.968 281.742C195.39 281.742 194.932 281.283 194.932 280.725C194.932 280.167 195.39 279.689 195.968 279.689C196.506 279.689 196.985 280.167 196.985 280.725C196.985 281.283 196.506 281.742 195.968 281.742ZM192.699 298.267L192.958 297.011C193.357 297.111 193.596 297.151 193.895 297.151C194.852 297.151 195.271 296.593 195.271 295.416V284.393H196.646V295.496C196.646 297.33 195.689 298.446 193.995 298.446C193.476 298.446 193.197 298.407 192.699 298.267ZM206.292 284.393H207.667V294.041H206.471L206.292 292.406C205.754 293.523 204.418 294.28 202.903 294.28C200.631 294.28 199.395 292.725 199.395 290.373V284.373H200.79V289.935C200.79 292.227 201.807 293.044 203.342 293.044C205.195 293.044 206.292 291.808 206.292 289.516V284.393ZM209.521 291.33H210.836C210.836 292.446 211.673 293.144 213.029 293.144C214.524 293.144 215.401 292.506 215.401 291.47C215.401 290.672 215.002 290.214 213.866 289.935L212.212 289.516C210.537 289.097 209.72 288.22 209.72 286.905C209.72 285.21 211.135 284.134 213.208 284.134C215.242 284.134 216.557 285.25 216.617 287.044H215.281C215.242 285.928 214.464 285.27 213.168 285.27C211.813 285.27 211.055 285.848 211.055 286.885C211.055 287.622 211.574 288.141 212.63 288.4L214.285 288.818C215.959 289.237 216.717 290.014 216.717 291.41C216.717 293.144 215.242 294.28 213.049 294.28C210.876 294.28 209.521 293.124 209.521 291.33ZM221.194 294.041H219.838V285.549H217.905V284.393H219.838V281.343H221.194V284.393H223.127V285.549H221.194V294.041ZM233.218 294.28C231.165 294.28 229.949 293.124 229.949 291.43C229.949 289.656 231.304 288.539 233.557 288.36L236.746 288.101V287.782C236.746 285.888 235.61 285.29 234.195 285.29C232.52 285.29 231.523 286.047 231.523 287.343H230.268C230.268 285.39 231.862 284.134 234.235 284.134C236.467 284.134 238.102 285.25 238.102 287.802V294.041H236.946L236.766 292.347C236.168 293.563 234.852 294.28 233.218 294.28ZM233.537 293.164C235.57 293.164 236.746 291.749 236.746 289.656V289.137L233.896 289.357C232.082 289.516 231.344 290.313 231.344 291.39C231.344 292.566 232.221 293.164 233.537 293.164ZM245.314 284.393H246.789V282.519C246.789 280.346 247.985 279.509 249.46 279.509C249.799 279.509 250.198 279.529 250.517 279.589V280.765H249.699C248.483 280.765 248.165 281.383 248.165 282.519V284.393H250.437V285.549H248.165V294.041H246.789V285.549H245.314V284.393ZM256.063 294.28C253.232 294.28 251.339 292.247 251.339 289.217C251.339 286.207 253.212 284.134 255.963 284.134C258.575 284.134 260.349 285.988 260.349 288.719V289.396H252.674C252.774 291.749 254.01 293.104 256.083 293.104C257.658 293.104 258.674 292.426 259.033 291.151H260.349C259.83 293.184 258.335 294.28 256.063 294.28ZM255.963 285.31C254.149 285.31 252.953 286.506 252.714 288.4H258.973C258.973 286.546 257.777 285.31 255.963 285.31ZM264.328 294.041L261.139 284.393H262.554L264.448 290.214C264.667 290.852 264.846 291.509 265.046 292.287C265.205 291.509 265.524 290.533 265.624 290.214L267.537 284.393H268.953L270.846 290.214C271.026 290.732 271.265 291.569 271.444 292.287C271.644 291.489 271.684 291.25 272.023 290.214L273.936 284.393H275.371L272.102 294.041H270.767L268.773 287.981C268.534 287.263 268.375 286.665 268.255 286.087C268.115 286.606 267.956 287.184 267.697 287.981L265.703 294.041H264.328ZM286.406 294.28C283.595 294.28 281.94 292.127 281.94 289.237C281.94 286.327 283.595 284.134 286.465 284.134C288.06 284.134 289.336 284.832 290.014 286.227V279.509H291.389V294.041H290.193L290.053 292.068C289.376 293.563 288.02 294.28 286.406 294.28ZM286.645 293.024C288.758 293.024 289.994 291.43 289.994 289.197C289.994 286.984 288.758 285.37 286.645 285.37C284.552 285.37 283.336 286.984 283.336 289.197C283.336 291.43 284.552 293.024 286.645 293.024ZM297.03 294.28C294.977 294.28 293.761 293.124 293.761 291.43C293.761 289.656 295.116 288.539 297.369 288.36L300.558 288.101V287.782C300.558 285.888 299.422 285.29 298.007 285.29C296.332 285.29 295.336 286.047 295.336 287.343H294.08C294.08 285.39 295.675 284.134 298.047 284.134C300.279 284.134 301.914 285.25 301.914 287.802V294.041H300.758L300.578 292.347C299.98 293.563 298.665 294.28 297.03 294.28ZM297.349 293.164C299.382 293.164 300.558 291.749 300.558 289.656V289.137L297.708 289.357C295.894 289.516 295.156 290.313 295.156 291.39C295.156 292.566 296.033 293.164 297.349 293.164ZM303.483 298.247V297.111H304.54C305.377 297.111 306.214 297.051 306.692 295.755L307.111 294.619L303.204 284.393H304.659L307.769 292.805L310.819 284.393H312.234L307.809 296.254C307.251 297.769 306.314 298.387 304.938 298.387C304.36 298.387 303.922 298.347 303.483 298.247ZM312.967 291.33H314.283C314.283 292.446 315.12 293.144 316.476 293.144C317.971 293.144 318.848 292.506 318.848 291.47C318.848 290.672 318.449 290.214 317.313 289.935L315.658 289.516C313.984 289.097 313.167 288.22 313.167 286.905C313.167 285.21 314.582 284.134 316.655 284.134C318.688 284.134 320.004 285.25 320.064 287.044H318.728C318.688 285.928 317.911 285.27 316.615 285.27C315.26 285.27 314.502 285.848 314.502 286.885C314.502 287.622 315.02 288.141 316.077 288.4L317.731 288.818C319.406 289.237 320.163 290.014 320.163 291.41C320.163 293.144 318.688 294.28 316.495 294.28C314.323 294.28 312.967 293.124 312.967 291.33ZM323.448 294.26C322.77 294.26 322.192 293.702 322.192 293.044C322.192 292.367 322.77 291.788 323.448 291.788C324.126 291.788 324.704 292.367 324.704 293.044C324.704 293.702 324.126 294.26 323.448 294.26Z" fill="#C1C1C1"/>
</svg>
