<svg width="296" height="257" viewBox="0 0 296 257" fill="none" xmlns="http://www.w3.org/2000/svg">
<g filter="url(#filter0_d_65_389)">
<path d="M295.951 75.766V86.3706H41.355V45.6363C41.355 38.0993 47.4663 32 54.9912 32H136.081C143.606 32 149.717 38.0993 149.717 45.6363C149.717 48.3611 151.925 50.5687 154.65 50.5687H270.771C284.684 50.5687 295.957 61.841 295.957 75.766H295.951Z" fill="#3D3DF2"/>
<path d="M285.466 72.8298H51.1355C45.5378 72.8298 41 77.3676 41 82.9653V243.039C41 248.637 45.5378 253.175 51.1355 253.175H285.466C291.064 253.175 295.602 248.637 295.602 243.039V82.9653C295.602 77.3676 291.064 72.8298 285.466 72.8298Z" fill="#0202FC"/>
<path d="M107.834 116.98V160.95C107.834 164.186 110.457 166.815 113.699 166.815H155.065C158.301 166.815 160.929 164.192 160.929 160.95V116.98C160.929 113.744 158.307 111.115 155.065 111.115H113.699C110.463 111.115 107.834 113.738 107.834 116.98Z" fill="white"/>
<path d="M122.938 104.98V117.251C122.938 120.487 125.56 123.116 128.802 123.116H139.948C143.185 123.116 145.813 120.493 145.813 117.251V104.98C145.813 101.744 143.191 99.1157 139.948 99.1157H128.802C125.566 99.1157 122.938 101.738 122.938 104.98Z" fill="black"/>
<path d="M176.027 116.98V160.95C176.027 164.186 178.65 166.815 181.892 166.815H223.258C226.494 166.815 229.123 164.192 229.123 160.95V116.98C229.123 113.744 226.5 111.115 223.258 111.115H181.892C178.656 111.115 176.027 113.738 176.027 116.98Z" fill="white"/>
<path d="M191.215 104.98V117.251C191.215 120.487 193.838 123.116 197.08 123.116H208.226C211.462 123.116 214.091 120.493 214.091 117.251V104.98C214.091 101.744 211.468 99.1157 208.226 99.1157H197.08C193.844 99.1157 191.215 101.738 191.215 104.98Z" fill="black"/>
</g>
<defs>
<filter id="filter0_d_65_389" x="0.299999" y="0.299999" width="295.657" height="256.575" filterUnits="userSpaceOnUse" color-interpolation-filters="sRGB">
<feFlood flood-opacity="0" result="BackgroundImageFix"/>
<feColorMatrix in="SourceAlpha" type="matrix" values="0 0 0 0 0 0 0 0 0 0 0 0 0 0 0 0 0 0 127 0" result="hardAlpha"/>
<feOffset dx="-23" dy="-14"/>
<feGaussianBlur stdDeviation="8.85"/>
<feComposite in2="hardAlpha" operator="out"/>
<feColorMatrix type="matrix" values="0 0 0 0 0 0 0 0 0 0 0 0 0 0 0 0 0 0 0.25 0"/>
<feBlend mode="normal" in2="BackgroundImageFix" result="effect1_dropShadow_65_389"/>
<feBlend mode="normal" in="SourceGraphic" in2="effect1_dropShadow_65_389" result="shape"/>
</filter>
</defs>
</svg>
